<svg xmlns="http://www.w3.org/2000/svg" viewBox="0 0 64 64" width="64" height="64">
  <!-- Caput-Medusae bloom: bulbous base, tentacle leaves, red/pink bloom -->
  <g transform="translate(32,54) scale(1.5)">
    <ellipse cx="0" cy="-6" rx="10" ry="8" fill="#6ab86a" stroke="#4a8a4a" stroke-width="1.5"/>
    <path d="M-4,-12 C-8,-22 -14,-26 -16,-20" fill="none" stroke="#7ec87e" stroke-width="2.5" stroke-linecap="round"/>
    <path d="M4,-12 C8,-22 14,-26 16,-20" fill="none" stroke="#7ec87e" stroke-width="2.5" stroke-linecap="round"/>
    <path d="M0,-14 C-2,-24 2,-28 4,-22" fill="none" stroke="#95d895" stroke-width="2" stroke-linecap="round"/>
    <path d="M-6,-10 C-12,-16 -18,-14 -16,-10" fill="none" stroke="#7ec87e" stroke-width="2" stroke-linecap="round"/>
    <path d="M6,-10 C12,-16 18,-14 16,-10" fill="none" stroke="#7ec87e" stroke-width="2" stroke-linecap="round"/>
    <!-- Bloom -->
    <line x1="0" y1="-14" x2="0" y2="-30" stroke="#dd5577" stroke-width="2.5"/>
    <ellipse cx="-2" cy="-32" rx="4" ry="3" fill="#ee6688"/>
    <ellipse cx="2" cy="-34" rx="4" ry="3" fill="#ff7799"/>
  </g>
</svg>
